<?xml version="1.0" encoding="UTF-8"?>
<svg xmlns="http://www.w3.org/2000/svg" xmlns:xlink="http://www.w3.org/1999/xlink" width="50pt" height="50pt" viewBox="0 0 50 50" version="1.1">
<g id="surface22705909">
<path style=" stroke:none;fill-rule:nonzero;fill:rgb(100%,100%,100%);fill-opacity:1;" d="M 25 6.25 C 14.664062 6.25 6.25 14.664062 6.25 25 C 6.25 35.335938 14.664062 43.75 25 43.75 C 35.335938 43.75 43.75 35.335938 43.75 25 C 43.75 14.664062 35.335938 6.25 25 6.25 Z M 25 9.375 C 33.648438 9.375 40.625 16.351562 40.625 25 C 40.625 32.855469 34.863281 39.316406 27.324219 40.4375 L 27.324219 29.554688 L 31.773438 29.554688 L 32.472656 25.035156 L 27.324219 25.035156 L 27.324219 22.566406 C 27.324219 20.691406 27.941406 19.023438 29.695312 19.023438 L 32.515625 19.023438 L 32.515625 15.082031 C 32.019531 15.015625 30.972656 14.867188 28.992188 14.867188 C 24.855469 14.867188 22.429688 17.050781 22.429688 22.03125 L 22.429688 25.035156 L 18.175781 25.035156 L 18.175781 29.554688 L 22.429688 29.554688 L 22.429688 40.394531 C 15.015625 39.171875 9.375 32.769531 9.375 25 C 9.375 16.351562 16.351562 9.375 25 9.375 Z M 25 9.375 "/>
</g>
</svg>
