<?xml version="1.0" encoding="UTF-8"?>
<svg xmlns="http://www.w3.org/2000/svg" xmlns:xlink="http://www.w3.org/1999/xlink" width="50pt" height="50pt" viewBox="0 0 50 50" version="1.1">
<g id="surface22705922">
<path style=" stroke:none;fill-rule:nonzero;fill:rgb(100%,100%,100%);fill-opacity:1;" d="M 12.5 7.8125 C 9.929688 7.8125 7.8125 9.929688 7.8125 12.5 L 7.8125 37.5 C 7.8125 40.070312 9.929688 42.1875 12.5 42.1875 L 37.5 42.1875 C 40.070312 42.1875 42.1875 40.070312 42.1875 37.5 L 42.1875 12.5 C 42.1875 9.929688 40.070312 7.8125 37.5 7.8125 Z M 32.8125 12.5 L 37.5 12.5 L 37.5 17.1875 L 32.8125 17.1875 Z M 25 18.75 C 28.472656 18.75 31.25 21.527344 31.25 25 C 31.25 28.472656 28.472656 31.25 25 31.25 C 21.527344 31.25 18.75 28.472656 18.75 25 C 18.75 21.527344 21.527344 18.75 25 18.75 Z M 10.9375 21.875 L 16.164062 21.875 C 15.8125 22.851562 15.625 23.90625 15.625 25 C 15.625 30.15625 19.84375 34.375 25 34.375 C 30.15625 34.375 34.375 30.15625 34.375 25 C 34.375 23.90625 34.1875 22.851562 33.835938 21.875 L 39.0625 21.875 L 39.0625 37.5 C 39.0625 38.386719 38.386719 39.0625 37.5 39.0625 L 12.5 39.0625 C 11.613281 39.0625 10.9375 38.386719 10.9375 37.5 Z M 10.9375 21.875 "/>
</g>
</svg>
