<?xml version="1.0" encoding="UTF-8"?>
<svg xmlns="http://www.w3.org/2000/svg" xmlns:xlink="http://www.w3.org/1999/xlink" width="50pt" height="50pt" viewBox="0 0 50 50" version="1.1">
<g id="surface22705918">
<path style=" stroke:none;fill-rule:nonzero;fill:rgb(100%,100%,100%);fill-opacity:1;" d="M 43.75 13.371094 C 42.371094 13.984375 40.886719 14.398438 39.332031 14.582031 C 40.917969 13.628906 42.136719 12.121094 42.710938 10.328125 C 41.230469 11.207031 39.582031 11.847656 37.828125 12.195312 C 36.425781 10.699219 34.425781 9.757812 32.214844 9.757812 C 27.964844 9.757812 24.519531 13.207031 24.519531 17.457031 C 24.519531 18.058594 24.585938 18.644531 24.71875 19.207031 C 18.324219 18.890625 12.652344 15.828125 8.863281 11.167969 C 8.195312 12.304688 7.820312 13.628906 7.820312 15.039062 C 7.820312 17.707031 9.171875 20.0625 11.242188 21.441406 C 9.980469 21.398438 8.796875 21.058594 7.757812 20.476562 C 7.757812 20.515625 7.757812 20.542969 7.757812 20.574219 C 7.757812 24.304688 10.40625 27.417969 13.929688 28.117188 C 13.28125 28.296875 12.605469 28.394531 11.902344 28.394531 C 11.40625 28.394531 10.917969 28.34375 10.457031 28.253906 C 11.433594 31.3125 14.277344 33.53125 17.640625 33.601562 C 15.007812 35.664062 11.6875 36.890625 8.085938 36.890625 C 7.464844 36.890625 6.855469 36.851562 6.25 36.78125 C 9.65625 38.964844 13.695312 40.242188 18.042969 40.242188 C 32.195312 40.242188 39.933594 28.515625 39.933594 18.347656 C 39.933594 18.019531 39.921875 17.683594 39.910156 17.351562 C 41.414062 16.265625 42.71875 14.910156 43.75 13.371094 Z M 43.75 13.371094 "/>
</g>
</svg>
